# xmcd
#
# Track frame offsets:
#  150
#  20123
#  38285
#  59150
#  82574
#  96485
#  108662
#  124999
#  143075
#  160799
#  176778
#  195407
#
# Disc length: 2929 seconds
#
# Revision: 0
# Processed by: cddbd v1.5.2PL0 Copyright (c) Steve Scherf et al.
# Submitted via: AltoMP3_Maker 3.0
#
DISCID=9f0b6f0c
DTITLE=paul vincent - herzlichen glückwunsch
DYEAR=1900
DGENRE=
TTITLE0=schlechte zeiten
TTITLE1=sieben lange tage
TTITLE2=hand in hand
TTITLE3=auf achse
TTITLE4=herzlichen glückwunsch
TTITLE5=hausmann-blues
TTITLE6=schreck o schreck
TTITLE7=manta sally
TTITLE8=nein ich reg mich nicht mehr auf
TTITLE9=teufelspakt
TTITLE10=die blumenkinder sind in rente
TTITLE11=jenseits des ganges
EXTD=
EXTT0=
EXTT1=
EXTT2=
EXTT3=
EXTT4=
EXTT5=
EXTT6=
EXTT7=
EXTT8=
EXTT9=
EXTT10=
EXTT11=
PLAYORDER=
